<svg width="166" height="18" viewBox="0 0 166 18" fill="none" xmlns="http://www.w3.org/2000/svg">
<path d="M6.53906 1.20312H8.75391V10.1768C8.75391 11.4014 8.37012 12.374 7.60254 13.0947C6.84082 13.8154 5.83301 14.1758 4.5791 14.1758C3.24316 14.1758 2.21191 13.8389 1.48535 13.165C0.758789 12.4912 0.395508 11.5537 0.395508 10.3525H2.61035C2.61035 11.0322 2.77734 11.5449 3.11133 11.8906C3.45117 12.2305 3.94043 12.4004 4.5791 12.4004C5.17676 12.4004 5.65137 12.2041 6.00293 11.8115C6.36035 11.4131 6.53906 10.8652 6.53906 10.168V1.20312ZM16.7783 14C16.6846 13.8184 16.6025 13.5225 16.5322 13.1123C15.8525 13.8213 15.0205 14.1758 14.0361 14.1758C13.0811 14.1758 12.3018 13.9033 11.6982 13.3584C11.0947 12.8135 10.793 12.1396 10.793 11.3369C10.793 10.3232 11.168 9.54688 11.918 9.00781C12.6738 8.46289 13.752 8.19043 15.1523 8.19043H16.4619V7.56641C16.4619 7.07422 16.3242 6.68164 16.0488 6.38867C15.7734 6.08984 15.3545 5.94043 14.792 5.94043C14.3057 5.94043 13.9072 6.06348 13.5967 6.30957C13.2861 6.5498 13.1309 6.85742 13.1309 7.23242H10.9951C10.9951 6.71094 11.168 6.22461 11.5137 5.77344C11.8594 5.31641 12.3281 4.95898 12.9199 4.70117C13.5176 4.44336 14.1826 4.31445 14.915 4.31445C16.0283 4.31445 16.916 4.5957 17.5781 5.1582C18.2402 5.71484 18.5801 6.5 18.5977 7.51367V11.8027C18.5977 12.6582 18.7178 13.3408 18.958 13.8506V14H16.7783ZM14.4316 12.4619C14.8535 12.4619 15.249 12.3594 15.6182 12.1543C15.9932 11.9492 16.2744 11.6738 16.4619 11.3281V9.53516H15.3105C14.5195 9.53516 13.9248 9.67285 13.5264 9.94824C13.1279 10.2236 12.9287 10.6133 12.9287 11.1172C12.9287 11.5273 13.0635 11.8555 13.333 12.1016C13.6084 12.3418 13.9746 12.4619 14.4316 12.4619ZM23.5107 2.17871V4.49023H25.1895V6.07227H23.5107V11.3809C23.5107 11.7441 23.5811 12.0078 23.7217 12.1719C23.8682 12.3301 24.126 12.4092 24.4951 12.4092C24.7412 12.4092 24.9902 12.3799 25.2422 12.3213V13.9736C24.7559 14.1084 24.2871 14.1758 23.8359 14.1758C22.1953 14.1758 21.375 13.2705 21.375 11.46V6.07227H19.8105V4.49023H21.375V2.17871H23.5107ZM29.1006 14H26.9648V4.49023H29.1006V14ZM26.833 2.02051C26.833 1.69238 26.9355 1.41992 27.1406 1.20312C27.3516 0.986328 27.6504 0.87793 28.0371 0.87793C28.4238 0.87793 28.7227 0.986328 28.9336 1.20312C29.1445 1.41992 29.25 1.69238 29.25 2.02051C29.25 2.34277 29.1445 2.6123 28.9336 2.8291C28.7227 3.04004 28.4238 3.14551 28.0371 3.14551C27.6504 3.14551 27.3516 3.04004 27.1406 2.8291C26.9355 2.6123 26.833 2.34277 26.833 2.02051ZM33.4424 4.49023L33.5039 5.4834C34.1719 4.7041 35.0859 4.31445 36.2461 4.31445C37.5176 4.31445 38.3877 4.80078 38.8564 5.77344C39.5479 4.80078 40.5205 4.31445 41.7744 4.31445C42.8232 4.31445 43.6025 4.60449 44.1123 5.18457C44.6279 5.76465 44.8916 6.62012 44.9033 7.75098V14H42.7676V7.8125C42.7676 7.20898 42.6357 6.7666 42.3721 6.48535C42.1084 6.2041 41.6719 6.06348 41.0625 6.06348C40.5762 6.06348 40.1777 6.19531 39.8672 6.45898C39.5625 6.7168 39.3486 7.05664 39.2256 7.47852L39.2344 14H37.0986V7.74219C37.0693 6.62305 36.498 6.06348 35.3848 6.06348C34.5293 6.06348 33.9229 6.41211 33.5654 7.10938V14H31.4297V4.49023H33.4424ZM51.7852 14V1.20312H55.5645C56.6953 1.20312 57.6973 1.45508 58.5703 1.95898C59.4492 2.46289 60.1289 3.17773 60.6094 4.10352C61.0898 5.0293 61.3301 6.08984 61.3301 7.28516V7.92676C61.3301 9.13965 61.0869 10.2061 60.6006 11.126C60.1201 12.0459 59.4316 12.7549 58.5352 13.2529C57.6445 13.751 56.6221 14 55.4678 14H51.7852ZM54.0088 2.99609V12.2246H55.459C56.625 12.2246 57.5186 11.8613 58.1396 11.1348C58.7666 10.4023 59.0859 9.35352 59.0977 7.98828V7.27637C59.0977 5.8877 58.7959 4.82715 58.1924 4.09473C57.5889 3.3623 56.7129 2.99609 55.5645 2.99609H54.0088ZM67.5264 14.1758C66.1729 14.1758 65.0742 13.751 64.2305 12.9014C63.3926 12.0459 62.9736 10.9092 62.9736 9.49121V9.22754C62.9736 8.27832 63.1553 7.43164 63.5186 6.6875C63.8877 5.9375 64.4033 5.35449 65.0654 4.93848C65.7275 4.52246 66.4658 4.31445 67.2803 4.31445C68.5752 4.31445 69.5742 4.72754 70.2773 5.55371C70.9863 6.37988 71.3408 7.54883 71.3408 9.06055V9.92188H65.127C65.1914 10.707 65.4521 11.3281 65.9092 11.7852C66.3721 12.2422 66.9521 12.4707 67.6494 12.4707C68.6279 12.4707 69.4248 12.0752 70.04 11.2842L71.1914 12.3828C70.8105 12.9512 70.3008 13.3936 69.6621 13.71C69.0293 14.0205 68.3174 14.1758 67.5264 14.1758ZM67.2715 6.02832C66.6855 6.02832 66.2109 6.2334 65.8477 6.64355C65.4902 7.05371 65.2617 7.625 65.1621 8.35742H69.2314V8.19922C69.1846 7.48438 68.9941 6.94531 68.6602 6.58203C68.3262 6.21289 67.8633 6.02832 67.2715 6.02832ZM76.2363 11.293L78.249 4.49023H80.4551L77.1592 14H75.3047L71.9824 4.49023H74.1973L76.2363 11.293ZM85.8604 14.1758C84.5068 14.1758 83.4082 13.751 82.5645 12.9014C81.7266 12.0459 81.3076 10.9092 81.3076 9.49121V9.22754C81.3076 8.27832 81.4893 7.43164 81.8525 6.6875C82.2217 5.9375 82.7373 5.35449 83.3994 4.93848C84.0615 4.52246 84.7998 4.31445 85.6143 4.31445C86.9092 4.31445 87.9082 4.72754 88.6113 5.55371C89.3203 6.37988 89.6748 7.54883 89.6748 9.06055V9.92188H83.4609C83.5254 10.707 83.7861 11.3281 84.2432 11.7852C84.7061 12.2422 85.2861 12.4707 85.9834 12.4707C86.9619 12.4707 87.7588 12.0752 88.374 11.2842L89.5254 12.3828C89.1445 12.9512 88.6348 13.3936 87.9961 13.71C87.3633 14.0205 86.6514 14.1758 85.8604 14.1758ZM85.6055 6.02832C85.0195 6.02832 84.5449 6.2334 84.1816 6.64355C83.8242 7.05371 83.5957 7.625 83.4961 8.35742H87.5654V8.19922C87.5186 7.48438 87.3281 6.94531 86.9941 6.58203C86.6602 6.21289 86.1973 6.02832 85.6055 6.02832ZM93.6123 14H91.4766V0.5H93.6123V14ZM95.5459 9.15723C95.5459 8.22559 95.7305 7.3877 96.0996 6.64355C96.4688 5.89355 96.9873 5.31934 97.6553 4.9209C98.3232 4.5166 99.0908 4.31445 99.958 4.31445C101.241 4.31445 102.281 4.72754 103.078 5.55371C103.881 6.37988 104.314 7.47559 104.379 8.84082L104.388 9.3418C104.388 10.2793 104.206 11.1172 103.843 11.8555C103.485 12.5938 102.97 13.165 102.296 13.5693C101.628 13.9736 100.854 14.1758 99.9756 14.1758C98.6338 14.1758 97.5586 13.7305 96.75 12.8398C95.9473 11.9434 95.5459 10.751 95.5459 9.2627V9.15723ZM97.6816 9.3418C97.6816 10.3203 97.8838 11.0879 98.2881 11.6445C98.6924 12.1953 99.2549 12.4707 99.9756 12.4707C100.696 12.4707 101.256 12.1895 101.654 11.627C102.059 11.0645 102.261 10.2412 102.261 9.15723C102.261 8.19629 102.053 7.43457 101.637 6.87207C101.227 6.30957 100.667 6.02832 99.958 6.02832C99.2607 6.02832 98.707 6.30664 98.2969 6.86328C97.8867 7.41406 97.6816 8.24023 97.6816 9.3418ZM114.521 9.3418C114.521 10.8125 114.188 11.9873 113.52 12.8662C112.852 13.7393 111.955 14.1758 110.83 14.1758C109.787 14.1758 108.952 13.833 108.325 13.1475V17.6562H106.189V4.49023H108.158L108.246 5.45703C108.873 4.69531 109.726 4.31445 110.804 4.31445C111.964 4.31445 112.872 4.74805 113.528 5.61523C114.19 6.47656 114.521 7.6748 114.521 9.20996V9.3418ZM112.395 9.15723C112.395 8.20801 112.204 7.45508 111.823 6.89844C111.448 6.3418 110.909 6.06348 110.206 6.06348C109.333 6.06348 108.706 6.42383 108.325 7.14453V11.3633C108.712 12.1016 109.345 12.4707 110.224 12.4707C110.903 12.4707 111.434 12.1982 111.814 11.6533C112.201 11.1025 112.395 10.2705 112.395 9.15723ZM120.524 14.1758C119.171 14.1758 118.072 13.751 117.229 12.9014C116.391 12.0459 115.972 10.9092 115.972 9.49121V9.22754C115.972 8.27832 116.153 7.43164 116.517 6.6875C116.886 5.9375 117.401 5.35449 118.063 4.93848C118.726 4.52246 119.464 4.31445 120.278 4.31445C121.573 4.31445 122.572 4.72754 123.275 5.55371C123.984 6.37988 124.339 7.54883 124.339 9.06055V9.92188H118.125C118.189 10.707 118.45 11.3281 118.907 11.7852C119.37 12.2422 119.95 12.4707 120.647 12.4707C121.626 12.4707 122.423 12.0752 123.038 11.2842L124.189 12.3828C123.809 12.9512 123.299 13.3936 122.66 13.71C122.027 14.0205 121.315 14.1758 120.524 14.1758ZM120.27 6.02832C119.684 6.02832 119.209 6.2334 118.846 6.64355C118.488 7.05371 118.26 7.625 118.16 8.35742H122.229V8.19922C122.183 7.48438 121.992 6.94531 121.658 6.58203C121.324 6.21289 120.861 6.02832 120.27 6.02832ZM130.983 6.44141C130.702 6.39453 130.412 6.37109 130.113 6.37109C129.135 6.37109 128.476 6.74609 128.136 7.49609V14H126V4.49023H128.039L128.092 5.55371C128.607 4.72754 129.322 4.31445 130.236 4.31445C130.541 4.31445 130.793 4.35547 130.992 4.4375L130.983 6.44141ZM137.021 14V1.20312H140.801C141.932 1.20312 142.934 1.45508 143.807 1.95898C144.686 2.46289 145.365 3.17773 145.846 4.10352C146.326 5.0293 146.566 6.08984 146.566 7.28516V7.92676C146.566 9.13965 146.323 10.2061 145.837 11.126C145.356 12.0459 144.668 12.7549 143.771 13.2529C142.881 13.751 141.858 14 140.704 14H137.021ZM139.245 2.99609V12.2246H140.695C141.861 12.2246 142.755 11.8613 143.376 11.1348C144.003 10.4023 144.322 9.35352 144.334 7.98828V7.27637C144.334 5.8877 144.032 4.82715 143.429 4.09473C142.825 3.3623 141.949 2.99609 140.801 2.99609H139.245ZM154.257 14C154.163 13.8184 154.081 13.5225 154.011 13.1123C153.331 13.8213 152.499 14.1758 151.515 14.1758C150.56 14.1758 149.78 13.9033 149.177 13.3584C148.573 12.8135 148.271 12.1396 148.271 11.3369C148.271 10.3232 148.646 9.54688 149.396 9.00781C150.152 8.46289 151.23 8.19043 152.631 8.19043H153.94V7.56641C153.94 7.07422 153.803 6.68164 153.527 6.38867C153.252 6.08984 152.833 5.94043 152.271 5.94043C151.784 5.94043 151.386 6.06348 151.075 6.30957C150.765 6.5498 150.609 6.85742 150.609 7.23242H148.474C148.474 6.71094 148.646 6.22461 148.992 5.77344C149.338 5.31641 149.807 4.95898 150.398 4.70117C150.996 4.44336 151.661 4.31445 152.394 4.31445C153.507 4.31445 154.395 4.5957 155.057 5.1582C155.719 5.71484 156.059 6.5 156.076 7.51367V11.8027C156.076 12.6582 156.196 13.3408 156.437 13.8506V14H154.257ZM151.91 12.4619C152.332 12.4619 152.728 12.3594 153.097 12.1543C153.472 11.9492 153.753 11.6738 153.94 11.3281V9.53516H152.789C151.998 9.53516 151.403 9.67285 151.005 9.94824C150.606 10.2236 150.407 10.6133 150.407 11.1172C150.407 11.5273 150.542 11.8555 150.812 12.1016C151.087 12.3418 151.453 12.4619 151.91 12.4619ZM161.499 10.9414L163.433 4.49023H165.709L161.93 15.4414C161.35 17.041 160.365 17.8408 158.977 17.8408C158.666 17.8408 158.323 17.7881 157.948 17.6826V16.0303L158.353 16.0566C158.892 16.0566 159.296 15.957 159.565 15.7578C159.841 15.5645 160.058 15.2363 160.216 14.7734L160.523 13.9561L157.184 4.49023H159.486L161.499 10.9414Z" fill="#FA7268"/>
</svg>
